{
    "asset": { "version": "2.0", "generator": "rustforge-bootstrap" },
    "scene": 0,
    "scenes": [ { "nodes": [ 0 ] } ],
    "nodes": [ { "mesh": 0, "name": "Tetrahedron" } ],
    "meshes": [
        {
            "name": "Tetrahedron",
            "primitives": [
                { "attributes": { "POSITION": 0 }, "indices": 1, "mode": 4 }
            ]
        }
    ],
    "buffers": [ { "byteLength": 72, "uri": "data:application/octet-stream;base64," } ],
    "bufferViews": [
        { "buffer": 0, "byteOffset": 0,  "byteLength": 48, "target": 34962 },
        { "buffer": 0, "byteOffset": 48, "byteLength": 24, "target": 34963 }
    ],
    "accessors": [
        {
            "bufferView": 0, "componentType": 5126, "count": 4, "type": "VEC3",
            "min": [-1, -0.5, -0.6], "max": [1, 1.2, 1.2]
        },
        { "bufferView": 1, "componentType": 5123, "count": 12, "type": "SCALAR" }
    ]
}
